<svg width="22" height="22" viewBox="0 0 22 22" fill="none" xmlns="http://www.w3.org/2000/svg">
<path d="M22 1.00011C22 0.44782 21.5523 0.000104905 21 0.000105327L12 0.000105116C11.4477 0.000105116 11 0.44782 11 1.00011C11 1.55239 11.4477 2.00011 12 2.00011L20 2.0001L20 10.0001C20 10.5524 20.4477 11.0001 21 11.0001C21.5523 11.0001 22 10.5524 22 10.0001L22 1.00011ZM12.4286 9.57153L13.1357 10.2786L21.7071 1.70721L21 1.00011L20.2929 0.292998L11.7215 8.86443L12.4286 9.57153Z" fill="white"/>
<path d="M-1.67437e-05 20.9999C-1.71652e-05 21.5522 0.447698 21.9999 0.999983 21.9999L9.99998 21.9999C10.5523 21.9999 11 21.5522 11 20.9999C11 20.4476 10.5523 19.9999 9.99998 19.9999L1.99998 19.9999L1.99998 11.9999C1.99998 11.4476 1.55227 10.9999 0.999983 10.9999C0.447698 10.9999 -1.69545e-05 11.4476 -1.69545e-05 11.9999L-1.67437e-05 20.9999ZM9.57141 12.4285L8.8643 11.7214L0.292876 20.2928L0.999983 20.9999L1.70709 21.707L10.2785 13.1356L9.57141 12.4285Z" fill="white"/>
</svg>
