<svg width="40" height="40" viewBox="0 0 40 40" fill="none" xmlns="http://www.w3.org/2000/svg">
<path fill-rule="evenodd" clip-rule="evenodd" d="M27.3215 27.1826L34.6429 35.774L33.373 36.8653L26.0317 28.274C23.5052 30.1919 20.6613 31.1509 17.4999 31.1509C15.5819 31.1509 13.7466 30.7772 11.994 30.0299C10.2414 29.2825 8.73341 28.2773 7.47013 27.014C6.20685 25.7508 5.20156 24.2429 4.45427 22.4902C3.70698 20.7375 3.3333 18.9022 3.33325 16.9843C3.3332 15.0663 3.70687 13.231 4.45427 11.4783C5.20166 9.72567 6.20695 8.21773 7.47013 6.9545C8.7333 5.69127 10.2412 4.68599 11.994 3.93864C13.7467 3.1913 15.582 2.81763 17.4999 2.81763C19.4178 2.81763 21.2531 3.1913 23.0058 3.93864C24.7585 4.68599 26.2665 5.69127 27.5297 6.9545C28.7928 8.21773 29.7981 9.72567 30.5455 11.4783C31.2929 13.231 31.6666 15.0663 31.6665 16.9843C31.6665 18.9552 31.2829 20.8202 30.5158 22.5795C29.7486 24.3388 28.6837 25.8732 27.3213 27.1827L27.3215 27.1826ZM17.5001 29.4842C19.7619 29.4842 21.8519 28.9253 23.7699 27.8075C25.6879 26.6898 27.2058 25.1719 28.3235 23.254C29.4412 21.336 30.0001 19.246 30.0001 16.9841C30.0002 14.7222 29.4413 12.6322 28.3235 10.7143C27.2057 8.7963 25.6878 7.27846 23.7699 6.16075C21.852 5.04304 19.762 4.48419 17.5001 4.48419C15.2381 4.48419 13.1481 5.04304 11.2302 6.16075C9.31229 7.27846 7.79445 8.7963 6.67669 10.7143C5.55893 12.6322 5.00007 14.7222 5.00013 16.9841C5.00018 19.246 5.55903 21.336 6.67669 23.254C7.79435 25.1719 9.31218 26.6898 11.2302 27.8075C13.1482 28.9253 15.2382 29.4842 17.5001 29.4842Z" fill="white"/>
</svg>
