<svg width="35" height="35" viewBox="0 0 35 35" fill="none" xmlns="http://www.w3.org/2000/svg">
<g clip-path="url(#clip0_34_1160)">
<path d="M24.6094 0C30.348 0 35 4.65199 35 10.3906V35H28.4375V10.3906C28.4375 8.27641 26.7236 6.5625 24.6094 6.5625C22.4952 6.5625 20.7812 8.27641 20.7812 10.3906V24.6094C20.7812 30.348 16.1293 35 10.3906 35C4.65199 35 0 30.348 0 24.6094V0H6.5625V24.6094C6.5625 26.7236 8.27641 28.4375 10.3906 28.4375C12.5048 28.4375 14.2188 26.7236 14.2188 24.6094V10.3906C14.2188 4.65199 18.8707 0 24.6094 0Z" fill="white"/>
</g>
<defs>
<clipPath id="clip0_34_1160">
<rect width="35" height="35" fill="white"/>
</clipPath>
</defs>
</svg>
